<?xml version="1.0" encoding="UTF-8" standalone="no"?>
<!DOCTYPE svg PUBLIC "-//W3C//DTD SVG 1.1//EN"
 "http://www.w3.org/Graphics/SVG/1.1/DTD/svg11.dtd">
<!-- Generated by graphviz version 2.47.1 (20210418.0311)
 -->
<!-- Title: snakemake_dag Pages: 1 -->
<svg width="1137pt" height="912pt"
 viewBox="0.00 0.00 1137.29 912.00" xmlns="http://www.w3.org/2000/svg" xmlns:xlink="http://www.w3.org/1999/xlink">
<g id="graph0" class="graph" transform="scale(1 1) rotate(0) translate(4 908)">
<title>snakemake_dag</title>
<polygon fill="white" stroke="transparent" points="-4,4 -4,-908 1133.29,-908 1133.29,4 -4,4"/>
<!-- 0 -->
<g id="node1" class="node">
<title>0</title>
<text text-anchor="start" x="552.29" y="-269.6" font-family="sans" font-weight="bold" font-size="18.00">all</text>
<text text-anchor="start" x="454.29" y="-245.8" font-family="sans" font-size="10.00"> </text>
<text text-anchor="start" x="458.29" y="-245.8" font-family="sans" font-weight="bold" font-size="14.00">↪ input</text>
<text text-anchor="start" x="519.29" y="-245.8" font-family="sans" font-size="10.00"> </text>
<text text-anchor="start" x="454.29" y="-226" font-family="monospace" font-size="10.00">GRCh38.p12.genome.XXonly.fa</text>
<text text-anchor="start" x="454.29" y="-208" font-family="monospace" font-size="10.00">GRCh38.p12.genome.XYonly.fa</text>
<text text-anchor="start" x="454.29" y="-190" font-family="monospace" font-size="10.00">decoys_ymask.txt</text>
<text text-anchor="start" x="454.29" y="-172" font-family="monospace" font-size="10.00">decoys_ymask_x.txt</text>
<text text-anchor="start" x="454.29" y="-154" font-family="monospace" font-size="10.00">decoys_ypars.txt</text>
<text text-anchor="start" x="454.29" y="-136" font-family="monospace" font-size="10.00">decoys_ypars_x.txt</text>
<text text-anchor="start" x="454.29" y="-118" font-family="monospace" font-size="10.00">gencode.v29.transcripts_YPARs_masked_XY.fa</text>
<text text-anchor="start" x="454.29" y="-100" font-family="monospace" font-size="10.00">gencode.v29.transcripts_Ymasked.fa</text>
<text text-anchor="start" x="454.29" y="-82" font-family="monospace" font-size="10.00">gencode_salmon_index_XXonly</text>
<text text-anchor="start" x="454.29" y="-64" font-family="monospace" font-size="10.00">gencode_salmon_index_XYonly</text>
<text text-anchor="start" x="454.29" y="-46" font-family="monospace" font-size="10.00">gentrome_ymask.fa.gz</text>
<text text-anchor="start" x="454.29" y="-28" font-family="monospace" font-size="10.00">gentrome_ypars.fa.gz</text>
<text text-anchor="start" x="668.29" y="-10" font-family="sans" font-size="10.00"> &#160;</text>
<polygon fill="#57a7d9" stroke="#57a7d9" points="448.29,-260 448.29,-260 682.29,-260 682.29,-260 448.29,-260"/>
<polygon fill="#57a7d9" stroke="#57a7d9" points="448.29,-22 448.29,-22 682.29,-22 682.29,-22 448.29,-22"/>
<polygon fill="none" stroke="#57a7d9" stroke-width="2" points="447.79,-1 447.79,-289 680.79,-289 680.79,-1 447.79,-1"/>
</g>
<!-- 1 -->
<g id="node2" class="node">
<title>1</title>
<text text-anchor="start" x="108.29" y="-596.6" font-family="sans" font-weight="bold" font-size="18.00">decoyes_ypars</text>
<text text-anchor="start" x="108.29" y="-572.8" font-family="sans" font-size="10.00"> </text>
<text text-anchor="start" x="112.29" y="-572.8" font-family="sans" font-weight="bold" font-size="14.00">↪ input</text>
<text text-anchor="start" x="173.29" y="-572.8" font-family="sans" font-size="10.00"> </text>
<text text-anchor="start" x="108.29" y="-553" font-family="monospace" font-size="10.00">decoys_ypars_x.txt</text>
<text text-anchor="start" x="175.29" y="-532.8" font-family="sans" font-size="10.00"> </text>
<text text-anchor="start" x="179.29" y="-532.8" font-family="sans" font-weight="bold" font-size="14.00">output →</text>
<text text-anchor="start" x="252.29" y="-532.8" font-family="sans" font-size="10.00"> </text>
<text text-anchor="start" x="108.29" y="-513" font-family="monospace" font-size="10.00">decoys_ypars.txt</text>
<polygon fill="#d97f57" stroke="#d97f57" points="102.29,-587 102.29,-587 263.29,-587 263.29,-587 102.29,-587"/>
<polygon fill="#d97f57" stroke="#d97f57" points="102.29,-547 102.29,-547 263.29,-547 263.29,-547 102.29,-547"/>
<polygon fill="none" stroke="#d97f57" stroke-width="2" points="102.29,-504 102.29,-616 262.29,-616 262.29,-504 102.29,-504"/>
</g>
<!-- 1&#45;&gt;0 -->
<g id="edge3" class="edge">
<title>1&#45;&gt;0</title>
<path fill="none" stroke="grey" stroke-width="2" d="M196.8,-502.64C212.04,-452.03 240.03,-377.91 284.29,-326 326.2,-276.85 384.9,-236.3 437.73,-206.22"/>
<polygon fill="grey" stroke="grey" stroke-width="2" points="439.49,-209.24 446.49,-201.29 436.06,-203.14 439.49,-209.24"/>
</g>
<!-- 12 -->
<g id="node13" class="node">
<title>12</title>
<text text-anchor="start" x="300.29" y="-437.6" font-family="sans" font-weight="bold" font-size="18.00">salmon_index_XY</text>
<text text-anchor="start" x="300.29" y="-413.8" font-family="sans" font-size="10.00"> </text>
<text text-anchor="start" x="304.29" y="-413.8" font-family="sans" font-weight="bold" font-size="14.00">↪ input</text>
<text text-anchor="start" x="365.29" y="-413.8" font-family="sans" font-size="10.00"> </text>
<text text-anchor="start" x="300.29" y="-394" font-family="monospace" font-size="10.00">decoys_ypars.txt</text>
<text text-anchor="start" x="300.29" y="-376" font-family="monospace" font-size="10.00">gentrome_ypars.fa.gz</text>
<text text-anchor="start" x="391.29" y="-355.8" font-family="sans" font-size="10.00"> </text>
<text text-anchor="start" x="395.29" y="-355.8" font-family="sans" font-weight="bold" font-size="14.00">output →</text>
<text text-anchor="start" x="468.29" y="-355.8" font-family="sans" font-size="10.00"> </text>
<text text-anchor="start" x="300.29" y="-336" font-family="monospace" font-size="10.00">gencode_salmon_index_XYonly</text>
<polygon fill="#577fd9" stroke="#577fd9" points="294.29,-428 294.29,-428 479.29,-428 479.29,-428 294.29,-428"/>
<polygon fill="#577fd9" stroke="#577fd9" points="294.29,-370 294.29,-370 479.29,-370 479.29,-370 294.29,-370"/>
<polygon fill="none" stroke="#577fd9" stroke-width="2" points="294.29,-327 294.29,-457 478.29,-457 478.29,-327 294.29,-327"/>
</g>
<!-- 1&#45;&gt;12 -->
<g id="edge23" class="edge">
<title>1&#45;&gt;12</title>
<path fill="none" stroke="grey" stroke-width="2" d="M251.36,-502.8C266.42,-490.55 282.55,-477.42 298.24,-464.65"/>
<polygon fill="grey" stroke="grey" stroke-width="2" points="300.84,-467.05 306.39,-458.02 296.42,-461.62 300.84,-467.05"/>
</g>
<!-- 2 -->
<g id="node3" class="node">
<title>2</title>
<text text-anchor="start" x="74.29" y="-755.6" font-family="sans" font-weight="bold" font-size="18.00">decoys_ypars_x</text>
<text text-anchor="start" x="74.29" y="-731.8" font-family="sans" font-size="10.00"> </text>
<text text-anchor="start" x="78.29" y="-731.8" font-family="sans" font-weight="bold" font-size="14.00">↪ input</text>
<text text-anchor="start" x="139.29" y="-731.8" font-family="sans" font-size="10.00"> </text>
<text text-anchor="start" x="74.29" y="-712" font-family="monospace" font-size="10.00">GRCh38.p12.genome.XYonly.fa</text>
<text text-anchor="start" x="149.29" y="-691.8" font-family="sans" font-size="10.00"> </text>
<text text-anchor="start" x="153.29" y="-691.8" font-family="sans" font-weight="bold" font-size="14.00">output →</text>
<text text-anchor="start" x="226.29" y="-691.8" font-family="sans" font-size="10.00"> </text>
<text text-anchor="start" x="74.29" y="-672" font-family="monospace" font-size="10.00">decoys_ypars_x.txt</text>
<polygon fill="#57d9bb" stroke="#57d9bb" points="68.29,-746 68.29,-746 237.29,-746 237.29,-746 68.29,-746"/>
<polygon fill="#57d9bb" stroke="#57d9bb" points="68.29,-706 68.29,-706 237.29,-706 237.29,-706 68.29,-706"/>
<polygon fill="none" stroke="#57d9bb" stroke-width="2" points="68.29,-663 68.29,-775 236.29,-775 236.29,-663 68.29,-663"/>
</g>
<!-- 2&#45;&gt;0 -->
<g id="edge10" class="edge">
<title>2&#45;&gt;0</title>
<path fill="none" stroke="grey" stroke-width="2" d="M108.57,-661.88C101.86,-650.57 95.96,-638.34 92.29,-626 75.58,-569.77 74.83,-550.01 92.29,-494 119.29,-407.37 139.92,-385.65 208.29,-326 275.22,-267.62 364.43,-222.56 436.8,-192.12"/>
<polygon fill="grey" stroke="grey" stroke-width="2" points="438.56,-195.18 446.45,-188.11 435.87,-188.72 438.56,-195.18"/>
</g>
<!-- 2&#45;&gt;1 -->
<g id="edge13" class="edge">
<title>2&#45;&gt;1</title>
<path fill="none" stroke="grey" stroke-width="2" d="M163.04,-661.76C165.18,-650.53 167.46,-638.64 169.66,-627.12"/>
<polygon fill="grey" stroke="grey" stroke-width="2" points="173.13,-627.59 171.57,-617.11 166.26,-626.27 173.13,-627.59"/>
</g>
<!-- 3 -->
<g id="node4" class="node">
<title>3</title>
<text text-anchor="start" x="82.29" y="-883.6" font-family="sans" font-weight="bold" font-size="18.00">missing_file_1</text>
<text text-anchor="start" x="81.29" y="-862" font-family="sans" font-size="10.00"> &#160;</text>
<text text-anchor="start" x="142.29" y="-841.8" font-family="sans" font-size="10.00"> </text>
<text text-anchor="start" x="146.29" y="-841.8" font-family="sans" font-weight="bold" font-size="14.00">output →</text>
<text text-anchor="start" x="219.29" y="-841.8" font-family="sans" font-size="10.00"> </text>
<text text-anchor="start" x="81.29" y="-822" font-family="monospace" font-size="10.00">GRCh38.p12.genome.XYonly.fa</text>
<polygon fill="#bbd957" stroke="#bbd957" points="75.29,-874 75.29,-874 230.29,-874 230.29,-874 75.29,-874"/>
<polygon fill="#bbd957" stroke="#bbd957" points="75.29,-856 75.29,-856 230.29,-856 230.29,-856 75.29,-856"/>
<polygon fill="none" stroke="#bbd957" stroke-width="2" points="75.29,-813 75.29,-903 229.29,-903 229.29,-813 75.29,-813"/>
</g>
<!-- 3&#45;&gt;0 -->
<g id="edge6" class="edge">
<title>3&#45;&gt;0</title>
<path fill="none" stroke="grey" stroke-width="2" d="M84.54,-811.65C73.89,-801.27 64.4,-789.32 58.29,-776 -25.42,-593.36 -24.08,-482.99 101.29,-326 182.9,-223.81 330.28,-179.52 436.88,-160.4"/>
<polygon fill="grey" stroke="grey" stroke-width="2" points="437.49,-163.85 446.74,-158.68 436.29,-156.95 437.49,-163.85"/>
</g>
<!-- 3&#45;&gt;2 -->
<g id="edge14" class="edge">
<title>3&#45;&gt;2</title>
<path fill="none" stroke="grey" stroke-width="2" d="M152.29,-811.76C152.29,-803.58 152.29,-794.9 152.29,-786.27"/>
<polygon fill="grey" stroke="grey" stroke-width="2" points="155.79,-786.19 152.29,-776.19 148.79,-786.19 155.79,-786.19"/>
</g>
<!-- 9 -->
<g id="node10" class="node">
<title>9</title>
<text text-anchor="start" x="318.29" y="-605.6" font-family="sans" font-weight="bold" font-size="18.00">gentrome_ypars</text>
<text text-anchor="start" x="289.29" y="-581.8" font-family="sans" font-size="10.00"> </text>
<text text-anchor="start" x="293.29" y="-581.8" font-family="sans" font-weight="bold" font-size="14.00">↪ input</text>
<text text-anchor="start" x="354.29" y="-581.8" font-family="sans" font-size="10.00"> </text>
<text text-anchor="start" x="289.29" y="-562" font-family="monospace" font-size="10.00">GRCh38.p12.genome.XYonly.fa</text>
<text text-anchor="start" x="289.29" y="-544" font-family="monospace" font-size="10.00">gencode.v29.transcripts_YPARs_masked_XY.fa</text>
<text text-anchor="start" x="429.29" y="-523.8" font-family="sans" font-size="10.00"> </text>
<text text-anchor="start" x="433.29" y="-523.8" font-family="sans" font-weight="bold" font-size="14.00">output →</text>
<text text-anchor="start" x="506.29" y="-523.8" font-family="sans" font-size="10.00"> </text>
<text text-anchor="start" x="289.29" y="-504" font-family="monospace" font-size="10.00">gentrome_ypars.fa.gz</text>
<polygon fill="#d95757" stroke="#d95757" points="283.29,-596 283.29,-596 517.29,-596 517.29,-596 283.29,-596"/>
<polygon fill="#d95757" stroke="#d95757" points="283.29,-538 283.29,-538 517.29,-538 517.29,-538 283.29,-538"/>
<polygon fill="none" stroke="#d95757" stroke-width="2" points="282.79,-495 282.79,-625 515.79,-625 515.79,-495 282.79,-495"/>
</g>
<!-- 3&#45;&gt;9 -->
<g id="edge18" class="edge">
<title>3&#45;&gt;9</title>
<path fill="none" stroke="grey" stroke-width="2" d="M211.73,-811.75C224,-800.83 236.23,-788.64 246.29,-776 281.94,-731.19 273.29,-708.79 306.29,-662 313,-652.49 320.53,-642.93 328.33,-633.69"/>
<polygon fill="grey" stroke="grey" stroke-width="2" points="331.07,-635.88 334.93,-626.01 325.76,-631.32 331.07,-635.88"/>
</g>
<!-- 4 -->
<g id="node5" class="node">
<title>4</title>
<text text-anchor="start" x="656.29" y="-596.6" font-family="sans" font-weight="bold" font-size="18.00">decoys_ymask</text>
<text text-anchor="start" x="656.29" y="-572.8" font-family="sans" font-size="10.00"> </text>
<text text-anchor="start" x="660.29" y="-572.8" font-family="sans" font-weight="bold" font-size="14.00">↪ input</text>
<text text-anchor="start" x="721.29" y="-572.8" font-family="sans" font-size="10.00"> </text>
<text text-anchor="start" x="656.29" y="-553" font-family="monospace" font-size="10.00">decoys_ymask_x.txt</text>
<text text-anchor="start" x="720.29" y="-532.8" font-family="sans" font-size="10.00"> </text>
<text text-anchor="start" x="724.29" y="-532.8" font-family="sans" font-weight="bold" font-size="14.00">output →</text>
<text text-anchor="start" x="797.29" y="-532.8" font-family="sans" font-size="10.00"> </text>
<text text-anchor="start" x="656.29" y="-513" font-family="monospace" font-size="10.00">decoys_ymask.txt</text>
<polygon fill="#d9cf57" stroke="#d9cf57" points="650.29,-587 650.29,-587 808.29,-587 808.29,-587 650.29,-587"/>
<polygon fill="#d9cf57" stroke="#d9cf57" points="650.29,-547 650.29,-547 808.29,-547 808.29,-547 650.29,-547"/>
<polygon fill="none" stroke="#d9cf57" stroke-width="2" points="649.79,-504 649.79,-616 806.79,-616 806.79,-504 649.79,-504"/>
</g>
<!-- 4&#45;&gt;0 -->
<g id="edge4" class="edge">
<title>4&#45;&gt;0</title>
<path fill="none" stroke="grey" stroke-width="2" d="M698.66,-502.77C691.57,-488.37 684.31,-472.77 678.29,-458 654.99,-400.87 656.18,-384.06 635.29,-326 632.2,-317.41 628.97,-308.62 625.66,-299.76"/>
<polygon fill="grey" stroke="grey" stroke-width="2" points="628.83,-298.26 622.03,-290.13 622.28,-300.72 628.83,-298.26"/>
</g>
<!-- 11 -->
<g id="node12" class="node">
<title>11</title>
<text text-anchor="start" x="694.29" y="-437.6" font-family="sans" font-weight="bold" font-size="18.00">salmon_index_XX</text>
<text text-anchor="start" x="694.29" y="-413.8" font-family="sans" font-size="10.00"> </text>
<text text-anchor="start" x="698.29" y="-413.8" font-family="sans" font-weight="bold" font-size="14.00">↪ input</text>
<text text-anchor="start" x="759.29" y="-413.8" font-family="sans" font-size="10.00"> </text>
<text text-anchor="start" x="694.29" y="-394" font-family="monospace" font-size="10.00">decoys_ymask.txt</text>
<text text-anchor="start" x="694.29" y="-376" font-family="monospace" font-size="10.00">gentrome_ymask.fa.gz</text>
<text text-anchor="start" x="787.29" y="-355.8" font-family="sans" font-size="10.00"> </text>
<text text-anchor="start" x="791.29" y="-355.8" font-family="sans" font-weight="bold" font-size="14.00">output →</text>
<text text-anchor="start" x="864.29" y="-355.8" font-family="sans" font-size="10.00"> </text>
<text text-anchor="start" x="694.29" y="-336" font-family="monospace" font-size="10.00">gencode_salmon_index_XXonly</text>
<polygon fill="#57d993" stroke="#57d993" points="688.29,-428 688.29,-428 875.29,-428 875.29,-428 688.29,-428"/>
<polygon fill="#57d993" stroke="#57d993" points="688.29,-370 688.29,-370 875.29,-370 875.29,-370 688.29,-370"/>
<polygon fill="none" stroke="#57d993" stroke-width="2" points="688.29,-327 688.29,-457 874.29,-457 874.29,-327 688.29,-327"/>
</g>
<!-- 4&#45;&gt;11 -->
<g id="edge21" class="edge">
<title>4&#45;&gt;11</title>
<path fill="none" stroke="grey" stroke-width="2" d="M746.24,-502.8C749.83,-491.56 753.65,-479.58 757.4,-467.82"/>
<polygon fill="grey" stroke="grey" stroke-width="2" points="760.83,-468.61 760.53,-458.02 754.16,-466.48 760.83,-468.61"/>
</g>
<!-- 5 -->
<g id="node6" class="node">
<title>5</title>
<text text-anchor="start" x="632.29" y="-755.6" font-family="sans" font-weight="bold" font-size="18.00">decoys_ymask_x</text>
<text text-anchor="start" x="632.29" y="-731.8" font-family="sans" font-size="10.00"> </text>
<text text-anchor="start" x="636.29" y="-731.8" font-family="sans" font-weight="bold" font-size="14.00">↪ input</text>
<text text-anchor="start" x="697.29" y="-731.8" font-family="sans" font-size="10.00"> </text>
<text text-anchor="start" x="632.29" y="-712" font-family="monospace" font-size="10.00">GRCh38.p12.genome.XXonly.fa</text>
<text text-anchor="start" x="716.29" y="-691.8" font-family="sans" font-size="10.00"> </text>
<text text-anchor="start" x="720.29" y="-691.8" font-family="sans" font-weight="bold" font-size="14.00">output →</text>
<text text-anchor="start" x="793.29" y="-691.8" font-family="sans" font-size="10.00"> </text>
<text text-anchor="start" x="632.29" y="-672" font-family="monospace" font-size="10.00">decoys_ymask_x.txt</text>
<polygon fill="#93d957" stroke="#93d957" points="626.29,-746 626.29,-746 804.29,-746 804.29,-746 626.29,-746"/>
<polygon fill="#93d957" stroke="#93d957" points="626.29,-706 626.29,-706 804.29,-706 804.29,-706 626.29,-706"/>
<polygon fill="none" stroke="#93d957" stroke-width="2" points="625.79,-663 625.79,-775 802.79,-775 802.79,-663 625.79,-663"/>
</g>
<!-- 5&#45;&gt;0 -->
<g id="edge5" class="edge">
<title>5&#45;&gt;0</title>
<path fill="none" stroke="grey" stroke-width="2" d="M660.67,-661.79C652.35,-650.62 644.73,-638.47 639.29,-626 585.44,-502.61 618.77,-458.91 597.29,-326 595.93,-317.57 594.49,-308.92 593,-300.2"/>
<polygon fill="grey" stroke="grey" stroke-width="2" points="596.45,-299.59 591.31,-290.33 589.55,-300.78 596.45,-299.59"/>
</g>
<!-- 5&#45;&gt;4 -->
<g id="edge15" class="edge">
<title>5&#45;&gt;4</title>
<path fill="none" stroke="grey" stroke-width="2" d="M719.31,-661.76C720.31,-650.53 721.37,-638.64 722.4,-627.12"/>
<polygon fill="grey" stroke="grey" stroke-width="2" points="725.89,-627.38 723.29,-617.11 718.91,-626.76 725.89,-627.38"/>
</g>
<!-- 6 -->
<g id="node7" class="node">
<title>6</title>
<text text-anchor="start" x="644.29" y="-883.6" font-family="sans" font-weight="bold" font-size="18.00">missing_file_2</text>
<text text-anchor="start" x="643.29" y="-862" font-family="sans" font-size="10.00"> &#160;</text>
<text text-anchor="start" x="704.29" y="-841.8" font-family="sans" font-size="10.00"> </text>
<text text-anchor="start" x="708.29" y="-841.8" font-family="sans" font-weight="bold" font-size="14.00">output →</text>
<text text-anchor="start" x="781.29" y="-841.8" font-family="sans" font-size="10.00"> </text>
<text text-anchor="start" x="643.29" y="-822" font-family="monospace" font-size="10.00">GRCh38.p12.genome.XXonly.fa</text>
<polygon fill="#6bd957" stroke="#6bd957" points="637.29,-874 637.29,-874 792.29,-874 792.29,-874 637.29,-874"/>
<polygon fill="#6bd957" stroke="#6bd957" points="637.29,-856 637.29,-856 792.29,-856 792.29,-856 637.29,-856"/>
<polygon fill="none" stroke="#6bd957" stroke-width="2" points="637.29,-813 637.29,-903 791.29,-903 791.29,-813 637.29,-813"/>
</g>
<!-- 6&#45;&gt;0 -->
<g id="edge7" class="edge">
<title>6&#45;&gt;0</title>
<path fill="none" stroke="grey" stroke-width="2" d="M644.13,-811.98C632.73,-801.53 622.36,-789.47 615.29,-776 593.76,-734.94 578.43,-473.51 570.5,-300.58"/>
<polygon fill="grey" stroke="grey" stroke-width="2" points="573.98,-300.18 570.03,-290.35 566.99,-300.5 573.98,-300.18"/>
</g>
<!-- 6&#45;&gt;5 -->
<g id="edge16" class="edge">
<title>6&#45;&gt;5</title>
<path fill="none" stroke="grey" stroke-width="2" d="M714.29,-811.76C714.29,-803.58 714.29,-794.9 714.29,-786.27"/>
<polygon fill="grey" stroke="grey" stroke-width="2" points="717.79,-786.19 714.29,-776.19 710.79,-786.19 717.79,-786.19"/>
</g>
<!-- 8 -->
<g id="node9" class="node">
<title>8</title>
<text text-anchor="start" x="844.79" y="-605.6" font-family="sans" font-weight="bold" font-size="18.00">gentrome_ymask</text>
<text text-anchor="start" x="833.29" y="-581.8" font-family="sans" font-size="10.00"> </text>
<text text-anchor="start" x="837.29" y="-581.8" font-family="sans" font-weight="bold" font-size="14.00">↪ input</text>
<text text-anchor="start" x="898.29" y="-581.8" font-family="sans" font-size="10.00"> </text>
<text text-anchor="start" x="833.29" y="-562" font-family="monospace" font-size="10.00">GRCh38.p12.genome.XXonly.fa</text>
<text text-anchor="start" x="833.29" y="-544" font-family="monospace" font-size="10.00">gencode.v29.transcripts_Ymasked_XX.fa</text>
<text text-anchor="start" x="947.29" y="-523.8" font-family="sans" font-size="10.00"> </text>
<text text-anchor="start" x="951.29" y="-523.8" font-family="sans" font-weight="bold" font-size="14.00">output →</text>
<text text-anchor="start" x="1024.29" y="-523.8" font-family="sans" font-size="10.00"> </text>
<text text-anchor="start" x="833.29" y="-504" font-family="monospace" font-size="10.00">gentrome_ymask.fa.gz</text>
<polygon fill="#57d96b" stroke="#57d96b" points="827.29,-596 827.29,-596 1035.29,-596 1035.29,-596 827.29,-596"/>
<polygon fill="#57d96b" stroke="#57d96b" points="827.29,-538 827.29,-538 1035.29,-538 1035.29,-538 827.29,-538"/>
<polygon fill="none" stroke="#57d96b" stroke-width="2" points="826.79,-495 826.79,-625 1033.79,-625 1033.79,-495 826.79,-495"/>
</g>
<!-- 6&#45;&gt;8 -->
<g id="edge17" class="edge">
<title>6&#45;&gt;8</title>
<path fill="none" stroke="grey" stroke-width="2" d="M776.16,-811.91C788.96,-800.99 801.74,-788.76 812.29,-776 847.51,-733.42 877.34,-678.76 898.2,-635.21"/>
<polygon fill="grey" stroke="grey" stroke-width="2" points="901.4,-636.63 902.52,-626.1 895.07,-633.64 901.4,-636.63"/>
</g>
<!-- 7 -->
<g id="node8" class="node">
<title>7</title>
<text text-anchor="start" x="938.29" y="-428.6" font-family="sans" font-weight="bold" font-size="18.00">gencode_ymasked</text>
<text text-anchor="start" x="938.29" y="-404.8" font-family="sans" font-size="10.00"> </text>
<text text-anchor="start" x="942.29" y="-404.8" font-family="sans" font-weight="bold" font-size="14.00">↪ input</text>
<text text-anchor="start" x="1003.29" y="-404.8" font-family="sans" font-size="10.00"> </text>
<text text-anchor="start" x="938.29" y="-385" font-family="monospace" font-size="10.00">gencode.v29.transcripts.fa</text>
<text text-anchor="start" x="1041.29" y="-364.8" font-family="sans" font-size="10.00"> </text>
<text text-anchor="start" x="1045.29" y="-364.8" font-family="sans" font-weight="bold" font-size="14.00">output →</text>
<text text-anchor="start" x="1118.29" y="-364.8" font-family="sans" font-size="10.00"> </text>
<text text-anchor="start" x="938.29" y="-345" font-family="monospace" font-size="10.00">gencode.v29.transcripts_Ymasked.fa</text>
<polygon fill="#d9a757" stroke="#d9a757" points="932.29,-419 932.29,-419 1129.29,-419 1129.29,-419 932.29,-419"/>
<polygon fill="#d9a757" stroke="#d9a757" points="932.29,-379 932.29,-379 1129.29,-379 1129.29,-379 932.29,-379"/>
<polygon fill="none" stroke="#d9a757" stroke-width="2" points="932.29,-336 932.29,-448 1128.29,-448 1128.29,-336 932.29,-336"/>
</g>
<!-- 7&#45;&gt;0 -->
<g id="edge2" class="edge">
<title>7&#45;&gt;0</title>
<path fill="none" stroke="grey" stroke-width="2" d="M933.39,-334.84C927.96,-331.82 922.56,-328.86 917.29,-326 842.92,-285.68 758.54,-242.56 690.93,-208.63"/>
<polygon fill="grey" stroke="grey" stroke-width="2" points="692.44,-205.47 681.93,-204.12 689.3,-211.73 692.44,-205.47"/>
</g>
<!-- 8&#45;&gt;0 -->
<g id="edge8" class="edge">
<title>8&#45;&gt;0</title>
<path fill="none" stroke="grey" stroke-width="2" d="M923.56,-493.74C916.36,-434.43 903.33,-352.3 884.29,-326 837.17,-260.91 758.85,-216.28 691.49,-187.73"/>
<polygon fill="grey" stroke="grey" stroke-width="2" points="692.64,-184.42 682.06,-183.81 689.95,-190.89 692.64,-184.42"/>
</g>
<!-- 8&#45;&gt;11 -->
<g id="edge20" class="edge">
<title>8&#45;&gt;11</title>
<path fill="none" stroke="grey" stroke-width="2" d="M871.83,-493.87C863.53,-484.62 854.95,-475.07 846.54,-465.69"/>
<polygon fill="grey" stroke="grey" stroke-width="2" points="849.11,-463.32 839.83,-458.22 843.9,-468 849.11,-463.32"/>
</g>
<!-- 9&#45;&gt;0 -->
<g id="edge1" class="edge">
<title>9&#45;&gt;0</title>
<path fill="none" stroke="grey" stroke-width="2" d="M464.52,-493.91C473.48,-482.59 481.81,-470.43 488.29,-458 503.09,-429.61 519.91,-363.89 533.96,-300.06"/>
<polygon fill="grey" stroke="grey" stroke-width="2" points="537.39,-300.76 536.1,-290.25 530.55,-299.27 537.39,-300.76"/>
</g>
<!-- 9&#45;&gt;12 -->
<g id="edge22" class="edge">
<title>9&#45;&gt;12</title>
<path fill="none" stroke="grey" stroke-width="2" d="M394.19,-493.87C393.53,-485.45 392.85,-476.77 392.18,-468.2"/>
<polygon fill="grey" stroke="grey" stroke-width="2" points="395.67,-467.91 391.4,-458.22 388.69,-468.46 395.67,-467.91"/>
</g>
<!-- 10 -->
<g id="node11" class="node">
<title>10</title>
<text text-anchor="start" x="363.79" y="-744.6" font-family="sans" font-weight="bold" font-size="18.00">missing_file_3</text>
<text text-anchor="start" x="323.29" y="-723" font-family="sans" font-size="10.00"> &#160;</text>
<text text-anchor="start" x="463.29" y="-702.8" font-family="sans" font-size="10.00"> </text>
<text text-anchor="start" x="467.29" y="-702.8" font-family="sans" font-weight="bold" font-size="14.00">output →</text>
<text text-anchor="start" x="540.29" y="-702.8" font-family="sans" font-size="10.00"> </text>
<text text-anchor="start" x="323.29" y="-683" font-family="monospace" font-size="10.00">gencode.v29.transcripts_YPARs_masked_XY.fa</text>
<polygon fill="#57cfd9" stroke="#57cfd9" points="317.29,-735 317.29,-735 551.29,-735 551.29,-735 317.29,-735"/>
<polygon fill="#57cfd9" stroke="#57cfd9" points="317.29,-717 317.29,-717 551.29,-717 551.29,-717 317.29,-717"/>
<polygon fill="none" stroke="#57cfd9" stroke-width="2" points="316.79,-674 316.79,-764 549.79,-764 549.79,-674 316.79,-674"/>
</g>
<!-- 10&#45;&gt;0 -->
<g id="edge11" class="edge">
<title>10&#45;&gt;0</title>
<path fill="none" stroke="grey" stroke-width="2" d="M491.29,-672.54C504.68,-659.05 517.33,-643.22 525.29,-626 551.25,-569.87 560.23,-418.32 563.19,-300.37"/>
<polygon fill="grey" stroke="grey" stroke-width="2" points="566.69,-300.23 563.43,-290.15 559.7,-300.06 566.69,-300.23"/>
</g>
<!-- 10&#45;&gt;9 -->
<g id="edge19" class="edge">
<title>10&#45;&gt;9</title>
<path fill="none" stroke="grey" stroke-width="2" d="M423.46,-672.59C420.98,-661.16 418.26,-648.58 415.56,-636.11"/>
<polygon fill="grey" stroke="grey" stroke-width="2" points="418.94,-635.19 413.4,-626.16 412.1,-636.68 418.94,-635.19"/>
</g>
<!-- 11&#45;&gt;0 -->
<g id="edge9" class="edge">
<title>11&#45;&gt;0</title>
<path fill="none" stroke="grey" stroke-width="2" d="M723.71,-325.99C712.8,-313.67 701,-300.34 688.92,-286.71"/>
<polygon fill="grey" stroke="grey" stroke-width="2" points="691.44,-284.28 682.19,-279.11 686.2,-288.92 691.44,-284.28"/>
</g>
<!-- 12&#45;&gt;0 -->
<g id="edge12" class="edge">
<title>12&#45;&gt;0</title>
<path fill="none" stroke="grey" stroke-width="2" d="M433.53,-325.99C439.82,-317.33 446.47,-308.17 453.31,-298.76"/>
<polygon fill="grey" stroke="grey" stroke-width="2" points="456.32,-300.57 459.36,-290.43 450.65,-296.46 456.32,-300.57"/>
</g>
</g>
</svg>
