<?xml version="1.0" encoding="UTF-8" standalone="no"?>
<!DOCTYPE svg PUBLIC "-//W3C//DTD SVG 1.1//EN"
 "http://www.w3.org/Graphics/SVG/1.1/DTD/svg11.dtd">
<!-- Generated by graphviz version 2.47.1 (20210418.0311)
 -->
<!-- Title: snakemake_dag Pages: 1 -->
<svg width="701pt" height="332pt"
 viewBox="0.00 0.00 701.02 332.00" xmlns="http://www.w3.org/2000/svg" xmlns:xlink="http://www.w3.org/1999/xlink">
<g id="graph0" class="graph" transform="scale(1 1) rotate(0) translate(4 328)">
<title>snakemake_dag</title>
<polygon fill="white" stroke="transparent" points="-4,4 -4,-328 697.02,-328 697.02,4 -4,4"/>
<!-- 0 -->
<g id="node1" class="node">
<title>0</title>
<path fill="none" stroke="#d85656" stroke-width="2" d="M317.02,-36C317.02,-36 287.02,-36 287.02,-36 281.02,-36 275.02,-30 275.02,-24 275.02,-24 275.02,-12 275.02,-12 275.02,-6 281.02,0 287.02,0 287.02,0 317.02,0 317.02,0 323.02,0 329.02,-6 329.02,-12 329.02,-12 329.02,-24 329.02,-24 329.02,-30 323.02,-36 317.02,-36"/>
<text text-anchor="middle" x="302.02" y="-15.5" font-family="sans" font-size="10.00">all</text>
</g>
<!-- 1 -->
<g id="node2" class="node">
<title>1</title>
<path fill="none" stroke="#567bd8" stroke-width="2" d="M128.52,-180C128.52,-180 63.52,-180 63.52,-180 57.52,-180 51.52,-174 51.52,-168 51.52,-168 51.52,-156 51.52,-156 51.52,-150 57.52,-144 63.52,-144 63.52,-144 128.52,-144 128.52,-144 134.52,-144 140.52,-150 140.52,-156 140.52,-156 140.52,-168 140.52,-168 140.52,-174 134.52,-180 128.52,-180"/>
<text text-anchor="middle" x="96.02" y="-159.5" font-family="sans" font-size="10.00">decoyes_ypars</text>
</g>
<!-- 1&#45;&gt;0 -->
<g id="edge12" class="edge">
<title>1&#45;&gt;0</title>
<path fill="none" stroke="grey" stroke-width="2" d="M92.25,-143.75C89.04,-124.04 87.24,-91.94 104.02,-72 124.54,-47.61 213.31,-31.4 264.75,-23.87"/>
<polygon fill="grey" stroke="grey" stroke-width="2" points="265.41,-27.31 274.82,-22.43 264.43,-20.38 265.41,-27.31"/>
</g>
<!-- 12 -->
<g id="node13" class="node">
<title>12</title>
<path fill="none" stroke="#d8a456" stroke-width="2" d="M204.52,-108C204.52,-108 125.52,-108 125.52,-108 119.52,-108 113.52,-102 113.52,-96 113.52,-96 113.52,-84 113.52,-84 113.52,-78 119.52,-72 125.52,-72 125.52,-72 204.52,-72 204.52,-72 210.52,-72 216.52,-78 216.52,-84 216.52,-84 216.52,-96 216.52,-96 216.52,-102 210.52,-108 204.52,-108"/>
<text text-anchor="middle" x="165.02" y="-87.5" font-family="sans" font-size="10.00">salmon_index_XY</text>
</g>
<!-- 1&#45;&gt;12 -->
<g id="edge22" class="edge">
<title>1&#45;&gt;12</title>
<path fill="none" stroke="grey" stroke-width="2" d="M113.07,-143.7C121.51,-135.14 131.84,-124.66 141.06,-115.3"/>
<polygon fill="grey" stroke="grey" stroke-width="2" points="143.63,-117.68 148.16,-108.1 138.64,-112.77 143.63,-117.68"/>
</g>
<!-- 2 -->
<g id="node3" class="node">
<title>2</title>
<path fill="none" stroke="#d8cb56" stroke-width="2" d="M114.52,-252C114.52,-252 43.52,-252 43.52,-252 37.52,-252 31.52,-246 31.52,-240 31.52,-240 31.52,-228 31.52,-228 31.52,-222 37.52,-216 43.52,-216 43.52,-216 114.52,-216 114.52,-216 120.52,-216 126.52,-222 126.52,-228 126.52,-228 126.52,-240 126.52,-240 126.52,-246 120.52,-252 114.52,-252"/>
<text text-anchor="middle" x="79.02" y="-231.5" font-family="sans" font-size="10.00">decoys_ypars_x</text>
</g>
<!-- 2&#45;&gt;0 -->
<g id="edge3" class="edge">
<title>2&#45;&gt;0</title>
<path fill="none" stroke="grey" stroke-width="2" d="M62.98,-215.85C55,-206.12 46.19,-193.27 42.02,-180 26.41,-130.4 44.91,-102.51 87.02,-72 140.45,-33.29 218.87,-22.66 264.76,-19.86"/>
<polygon fill="grey" stroke="grey" stroke-width="2" points="265.06,-23.35 274.87,-19.34 264.7,-16.36 265.06,-23.35"/>
</g>
<!-- 2&#45;&gt;1 -->
<g id="edge13" class="edge">
<title>2&#45;&gt;1</title>
<path fill="none" stroke="grey" stroke-width="2" d="M83.22,-215.7C85.11,-207.9 87.39,-198.51 89.5,-189.83"/>
<polygon fill="grey" stroke="grey" stroke-width="2" points="92.9,-190.65 91.86,-180.1 86.1,-189 92.9,-190.65"/>
</g>
<!-- 3 -->
<g id="node4" class="node">
<title>3</title>
<path fill="none" stroke="#56d0d8" stroke-width="2" d="M110.02,-324C110.02,-324 48.02,-324 48.02,-324 42.02,-324 36.02,-318 36.02,-312 36.02,-312 36.02,-300 36.02,-300 36.02,-294 42.02,-288 48.02,-288 48.02,-288 110.02,-288 110.02,-288 116.02,-288 122.02,-294 122.02,-300 122.02,-300 122.02,-312 122.02,-312 122.02,-318 116.02,-324 110.02,-324"/>
<text text-anchor="middle" x="79.02" y="-303.5" font-family="sans" font-size="10.00">missing_file_1</text>
</g>
<!-- 3&#45;&gt;0 -->
<g id="edge10" class="edge">
<title>3&#45;&gt;0</title>
<path fill="none" stroke="grey" stroke-width="2" d="M52.44,-287.91C40.78,-278.81 28.33,-266.49 22.02,-252 -10.22,-178.01 -10.32,-129.79 46.02,-72 75.95,-41.29 201.2,-27.04 264.72,-21.68"/>
<polygon fill="grey" stroke="grey" stroke-width="2" points="265.05,-25.17 274.73,-20.87 264.48,-18.19 265.05,-25.17"/>
</g>
<!-- 3&#45;&gt;2 -->
<g id="edge14" class="edge">
<title>3&#45;&gt;2</title>
<path fill="none" stroke="grey" stroke-width="2" d="M79.02,-287.7C79.02,-279.98 79.02,-270.71 79.02,-262.11"/>
<polygon fill="grey" stroke="grey" stroke-width="2" points="82.52,-262.1 79.02,-252.1 75.52,-262.1 82.52,-262.1"/>
</g>
<!-- 9 -->
<g id="node10" class="node">
<title>9</title>
<path fill="none" stroke="#68d856" stroke-width="2" d="M243.02,-180C243.02,-180 171.02,-180 171.02,-180 165.02,-180 159.02,-174 159.02,-168 159.02,-168 159.02,-156 159.02,-156 159.02,-150 165.02,-144 171.02,-144 171.02,-144 243.02,-144 243.02,-144 249.02,-144 255.02,-150 255.02,-156 255.02,-156 255.02,-168 255.02,-168 255.02,-174 249.02,-180 243.02,-180"/>
<text text-anchor="middle" x="207.02" y="-159.5" font-family="sans" font-size="10.00">gentrome_ypars</text>
</g>
<!-- 3&#45;&gt;9 -->
<g id="edge18" class="edge">
<title>3&#45;&gt;9</title>
<path fill="none" stroke="grey" stroke-width="2" d="M98.29,-287.93C109.38,-277.83 123.38,-264.58 135.02,-252 153.92,-231.56 173.7,-206.85 187.73,-188.65"/>
<polygon fill="grey" stroke="grey" stroke-width="2" points="190.83,-190.36 194.12,-180.29 185.27,-186.1 190.83,-190.36"/>
</g>
<!-- 4 -->
<g id="node5" class="node">
<title>4</title>
<path fill="none" stroke="#56d892" stroke-width="2" d="M464.52,-180C464.52,-180 399.52,-180 399.52,-180 393.52,-180 387.52,-174 387.52,-168 387.52,-168 387.52,-156 387.52,-156 387.52,-150 393.52,-144 399.52,-144 399.52,-144 464.52,-144 464.52,-144 470.52,-144 476.52,-150 476.52,-156 476.52,-156 476.52,-168 476.52,-168 476.52,-174 470.52,-180 464.52,-180"/>
<text text-anchor="middle" x="432.02" y="-159.5" font-family="sans" font-size="10.00">decoys_ymask</text>
</g>
<!-- 4&#45;&gt;0 -->
<g id="edge8" class="edge">
<title>4&#45;&gt;0</title>
<path fill="none" stroke="grey" stroke-width="2" d="M422.92,-143.68C412.47,-124.77 394.03,-94.22 373.02,-72 362.56,-60.94 349.57,-50.51 337.58,-41.87"/>
<polygon fill="grey" stroke="grey" stroke-width="2" points="339.27,-38.79 329.07,-35.92 335.26,-44.52 339.27,-38.79"/>
</g>
<!-- 11 -->
<g id="node12" class="node">
<title>11</title>
<path fill="none" stroke="#b6d856" stroke-width="2" d="M517.02,-108C517.02,-108 437.02,-108 437.02,-108 431.02,-108 425.02,-102 425.02,-96 425.02,-96 425.02,-84 425.02,-84 425.02,-78 431.02,-72 437.02,-72 437.02,-72 517.02,-72 517.02,-72 523.02,-72 529.02,-78 529.02,-84 529.02,-84 529.02,-96 529.02,-96 529.02,-102 523.02,-108 517.02,-108"/>
<text text-anchor="middle" x="477.02" y="-87.5" font-family="sans" font-size="10.00">salmon_index_XX</text>
</g>
<!-- 4&#45;&gt;11 -->
<g id="edge20" class="edge">
<title>4&#45;&gt;11</title>
<path fill="none" stroke="grey" stroke-width="2" d="M443.14,-143.7C448.37,-135.56 454.72,-125.69 460.49,-116.7"/>
<polygon fill="grey" stroke="grey" stroke-width="2" points="463.56,-118.41 466.02,-108.1 457.67,-114.62 463.56,-118.41"/>
</g>
<!-- 5 -->
<g id="node6" class="node">
<title>5</title>
<path fill="none" stroke="#56d8b9" stroke-width="2" d="M454.52,-252C454.52,-252 377.52,-252 377.52,-252 371.52,-252 365.52,-246 365.52,-240 365.52,-240 365.52,-228 365.52,-228 365.52,-222 371.52,-216 377.52,-216 377.52,-216 454.52,-216 454.52,-216 460.52,-216 466.52,-222 466.52,-228 466.52,-228 466.52,-240 466.52,-240 466.52,-246 460.52,-252 454.52,-252"/>
<text text-anchor="middle" x="416.02" y="-231.5" font-family="sans" font-size="10.00">decoys_ymask_x</text>
</g>
<!-- 5&#45;&gt;0 -->
<g id="edge9" class="edge">
<title>5&#45;&gt;0</title>
<path fill="none" stroke="grey" stroke-width="2" d="M401.87,-215.56C394.17,-205.55 384.86,-192.52 378.02,-180 353.23,-134.67 358.32,-118.11 335.02,-72 330.37,-62.81 324.63,-53.14 319.24,-44.62"/>
<polygon fill="grey" stroke="grey" stroke-width="2" points="322.19,-42.72 313.82,-36.21 316.3,-46.51 322.19,-42.72"/>
</g>
<!-- 5&#45;&gt;4 -->
<g id="edge15" class="edge">
<title>5&#45;&gt;4</title>
<path fill="none" stroke="grey" stroke-width="2" d="M419.97,-215.7C421.73,-207.98 423.85,-198.71 425.82,-190.11"/>
<polygon fill="grey" stroke="grey" stroke-width="2" points="429.29,-190.63 428.11,-180.1 422.47,-189.07 429.29,-190.63"/>
</g>
<!-- 6 -->
<g id="node7" class="node">
<title>6</title>
<path fill="none" stroke="#56d86b" stroke-width="2" d="M447.02,-324C447.02,-324 385.02,-324 385.02,-324 379.02,-324 373.02,-318 373.02,-312 373.02,-312 373.02,-300 373.02,-300 373.02,-294 379.02,-288 385.02,-288 385.02,-288 447.02,-288 447.02,-288 453.02,-288 459.02,-294 459.02,-300 459.02,-300 459.02,-312 459.02,-312 459.02,-318 453.02,-324 447.02,-324"/>
<text text-anchor="middle" x="416.02" y="-303.5" font-family="sans" font-size="10.00">missing_file_2</text>
</g>
<!-- 6&#45;&gt;0 -->
<g id="edge7" class="edge">
<title>6&#45;&gt;0</title>
<path fill="none" stroke="grey" stroke-width="2" d="M390.13,-287.92C378.04,-278.66 364.48,-266.21 356.02,-252 316.26,-185.3 305.77,-91.71 303.01,-46.11"/>
<polygon fill="grey" stroke="grey" stroke-width="2" points="306.5,-45.91 302.48,-36.11 299.51,-46.28 306.5,-45.91"/>
</g>
<!-- 6&#45;&gt;5 -->
<g id="edge16" class="edge">
<title>6&#45;&gt;5</title>
<path fill="none" stroke="grey" stroke-width="2" d="M416.02,-287.7C416.02,-279.98 416.02,-270.71 416.02,-262.11"/>
<polygon fill="grey" stroke="grey" stroke-width="2" points="419.52,-262.1 416.02,-252.1 412.52,-262.1 419.52,-262.1"/>
</g>
<!-- 8 -->
<g id="node9" class="node">
<title>8</title>
<path fill="none" stroke="#56a9d8" stroke-width="2" d="M584.02,-180C584.02,-180 506.02,-180 506.02,-180 500.02,-180 494.02,-174 494.02,-168 494.02,-168 494.02,-156 494.02,-156 494.02,-150 500.02,-144 506.02,-144 506.02,-144 584.02,-144 584.02,-144 590.02,-144 596.02,-150 596.02,-156 596.02,-156 596.02,-168 596.02,-168 596.02,-174 590.02,-180 584.02,-180"/>
<text text-anchor="middle" x="545.02" y="-159.5" font-family="sans" font-size="10.00">gentrome_ymask</text>
</g>
<!-- 6&#45;&gt;8 -->
<g id="edge17" class="edge">
<title>6&#45;&gt;8</title>
<path fill="none" stroke="grey" stroke-width="2" d="M436.76,-287.91C448.45,-277.91 463.06,-264.76 475.02,-252 493.96,-231.78 513.26,-206.85 526.78,-188.52"/>
<polygon fill="grey" stroke="grey" stroke-width="2" points="529.86,-190.24 532.93,-180.1 524.21,-186.12 529.86,-190.24"/>
</g>
<!-- 7 -->
<g id="node8" class="node">
<title>7</title>
<path fill="none" stroke="#d87d56" stroke-width="2" d="M681.02,-108C681.02,-108 597.02,-108 597.02,-108 591.02,-108 585.02,-102 585.02,-96 585.02,-96 585.02,-84 585.02,-84 585.02,-78 591.02,-72 597.02,-72 597.02,-72 681.02,-72 681.02,-72 687.02,-72 693.02,-78 693.02,-84 693.02,-84 693.02,-96 693.02,-96 693.02,-102 687.02,-108 681.02,-108"/>
<text text-anchor="middle" x="639.02" y="-87.5" font-family="sans" font-size="10.00">gencode_ymasked</text>
</g>
<!-- 7&#45;&gt;0 -->
<g id="edge1" class="edge">
<title>7&#45;&gt;0</title>
<path fill="none" stroke="grey" stroke-width="2" d="M584.88,-75.21C580.2,-74.09 575.53,-73.01 571.02,-72 488.66,-53.6 391.36,-35.27 339.31,-25.73"/>
<polygon fill="grey" stroke="grey" stroke-width="2" points="339.69,-22.24 329.22,-23.89 338.43,-29.13 339.69,-22.24"/>
</g>
<!-- 8&#45;&gt;0 -->
<g id="edge11" class="edge">
<title>8&#45;&gt;0</title>
<path fill="none" stroke="grey" stroke-width="2" d="M549.15,-143.66C552.76,-123.86 555.07,-91.68 538.02,-72 512.39,-42.44 399.06,-27.83 339.26,-22.07"/>
<polygon fill="grey" stroke="grey" stroke-width="2" points="339.38,-18.57 329.1,-21.13 338.73,-25.54 339.38,-18.57"/>
</g>
<!-- 8&#45;&gt;11 -->
<g id="edge21" class="edge">
<title>8&#45;&gt;11</title>
<path fill="none" stroke="grey" stroke-width="2" d="M528.21,-143.7C519.89,-135.14 509.71,-124.66 500.63,-115.3"/>
<polygon fill="grey" stroke="grey" stroke-width="2" points="503.11,-112.84 493.63,-108.1 498.09,-117.72 503.11,-112.84"/>
</g>
<!-- 9&#45;&gt;0 -->
<g id="edge6" class="edge">
<title>9&#45;&gt;0</title>
<path fill="none" stroke="grey" stroke-width="2" d="M218.48,-143.87C235.02,-119.14 265.73,-73.24 284.95,-44.51"/>
<polygon fill="grey" stroke="grey" stroke-width="2" points="287.86,-46.45 290.52,-36.19 282.05,-42.55 287.86,-46.45"/>
</g>
<!-- 9&#45;&gt;12 -->
<g id="edge23" class="edge">
<title>9&#45;&gt;12</title>
<path fill="none" stroke="grey" stroke-width="2" d="M196.63,-143.7C191.75,-135.56 185.83,-125.69 180.44,-116.7"/>
<polygon fill="grey" stroke="grey" stroke-width="2" points="183.43,-114.88 175.28,-108.1 177.42,-118.48 183.43,-114.88"/>
</g>
<!-- 10 -->
<g id="node11" class="node">
<title>10</title>
<path fill="none" stroke="#8fd856" stroke-width="2" d="M279.02,-252C279.02,-252 217.02,-252 217.02,-252 211.02,-252 205.02,-246 205.02,-240 205.02,-240 205.02,-228 205.02,-228 205.02,-222 211.02,-216 217.02,-216 217.02,-216 279.02,-216 279.02,-216 285.02,-216 291.02,-222 291.02,-228 291.02,-228 291.02,-240 291.02,-240 291.02,-246 285.02,-252 279.02,-252"/>
<text text-anchor="middle" x="248.02" y="-231.5" font-family="sans" font-size="10.00">missing_file_3</text>
</g>
<!-- 10&#45;&gt;0 -->
<g id="edge5" class="edge">
<title>10&#45;&gt;0</title>
<path fill="none" stroke="grey" stroke-width="2" d="M253.47,-215.89C256.7,-205.55 260.77,-192.07 264.02,-180 276.6,-133.15 289.12,-78.04 296.18,-45.96"/>
<polygon fill="grey" stroke="grey" stroke-width="2" points="299.64,-46.52 298.36,-36.01 292.81,-45.03 299.64,-46.52"/>
</g>
<!-- 10&#45;&gt;9 -->
<g id="edge19" class="edge">
<title>10&#45;&gt;9</title>
<path fill="none" stroke="grey" stroke-width="2" d="M237.88,-215.7C233.16,-207.64 227.45,-197.89 222.23,-188.98"/>
<polygon fill="grey" stroke="grey" stroke-width="2" points="225.11,-186.96 217.03,-180.1 219.07,-190.5 225.11,-186.96"/>
</g>
<!-- 11&#45;&gt;0 -->
<g id="edge4" class="edge">
<title>11&#45;&gt;0</title>
<path fill="none" stroke="grey" stroke-width="2" d="M434.21,-71.88C404.88,-60.15 366.4,-44.75 338.52,-33.6"/>
<polygon fill="grey" stroke="grey" stroke-width="2" points="339.72,-30.31 329.14,-29.85 337.12,-36.81 339.72,-30.31"/>
</g>
<!-- 12&#45;&gt;0 -->
<g id="edge2" class="edge">
<title>12&#45;&gt;0</title>
<path fill="none" stroke="grey" stroke-width="2" d="M198.53,-71.88C218.86,-61.49 244.82,-48.22 265.65,-37.58"/>
<polygon fill="grey" stroke="grey" stroke-width="2" points="267.51,-40.56 274.82,-32.9 264.32,-34.33 267.51,-40.56"/>
</g>
</g>
</svg>
