<?xml version="1.0" encoding="UTF-8" standalone="no"?>
<!DOCTYPE svg PUBLIC "-//W3C//DTD SVG 1.1//EN"
 "http://www.w3.org/Graphics/SVG/1.1/DTD/svg11.dtd">
<!-- Generated by graphviz version 2.47.1 (20210418.0311)
 -->
<!-- Title: snakemake_dag Pages: 1 -->
<svg width="985pt" height="548pt"
 viewBox="0.00 0.00 985.00 548.00" xmlns="http://www.w3.org/2000/svg" xmlns:xlink="http://www.w3.org/1999/xlink">
<g id="graph0" class="graph" transform="scale(1 1) rotate(0) translate(4 544)">
<title>snakemake_dag</title>
<polygon fill="white" stroke="transparent" points="-4,4 -4,-544 981,-544 981,4 -4,4"/>
<!-- 0 -->
<g id="node1" class="node">
<title>0</title>
<path fill="none" stroke="#c6d856" stroke-width="2" d="M544,-36C544,-36 514,-36 514,-36 508,-36 502,-30 502,-24 502,-24 502,-12 502,-12 502,-6 508,0 514,0 514,0 544,0 544,0 550,0 556,-6 556,-12 556,-12 556,-24 556,-24 556,-30 550,-36 544,-36"/>
<text text-anchor="middle" x="529" y="-15.5" font-family="sans" font-size="10.00">all</text>
</g>
<!-- 1 -->
<g id="node2" class="node">
<title>1</title>
<path fill="none" stroke="#56d8c9" stroke-width="2" d="M181,-252C181,-252 131,-252 131,-252 125,-252 119,-246 119,-240 119,-240 119,-228 119,-228 119,-222 125,-216 131,-216 131,-216 181,-216 181,-216 187,-216 193,-222 193,-228 193,-228 193,-240 193,-240 193,-246 187,-252 181,-252"/>
<text text-anchor="middle" x="156" y="-231.5" font-family="sans" font-size="10.00">cat_all_files</text>
</g>
<!-- 1&#45;&gt;0 -->
<g id="edge1" class="edge">
<title>1&#45;&gt;0</title>
<path fill="none" stroke="grey" stroke-width="2" d="M148.34,-215.95C135.09,-183.56 112.54,-112.74 148,-72 192.36,-21.05 404.56,-17.53 491.61,-18.29"/>
<polygon fill="grey" stroke="grey" stroke-width="2" points="491.79,-21.79 501.83,-18.41 491.87,-14.79 491.79,-21.79"/>
</g>
<!-- 14 -->
<g id="node15" class="node">
<title>14</title>
<path fill="none" stroke="#56d892" stroke-width="2" d="M243.5,-180C243.5,-180 172.5,-180 172.5,-180 166.5,-180 160.5,-174 160.5,-168 160.5,-168 160.5,-156 160.5,-156 160.5,-150 166.5,-144 172.5,-144 172.5,-144 243.5,-144 243.5,-144 249.5,-144 255.5,-150 255.5,-156 255.5,-156 255.5,-168 255.5,-168 255.5,-174 249.5,-180 243.5,-180"/>
<text text-anchor="middle" x="208" y="-159.5" font-family="sans" font-size="10.00">single_line_pars</text>
</g>
<!-- 1&#45;&gt;14 -->
<g id="edge29" class="edge">
<title>1&#45;&gt;14</title>
<path fill="none" stroke="grey" stroke-width="2" d="M168.85,-215.7C175.03,-207.39 182.54,-197.28 189.32,-188.14"/>
<polygon fill="grey" stroke="grey" stroke-width="2" points="192.14,-190.22 195.29,-180.1 186.52,-186.04 192.14,-190.22"/>
</g>
<!-- 2 -->
<g id="node3" class="node">
<title>2</title>
<path fill="none" stroke="#afd856" stroke-width="2" d="M245.5,-468C245.5,-468 66.5,-468 66.5,-468 60.5,-468 54.5,-462 54.5,-456 54.5,-456 54.5,-444 54.5,-444 54.5,-438 60.5,-432 66.5,-432 66.5,-432 245.5,-432 245.5,-432 251.5,-432 257.5,-438 257.5,-444 257.5,-444 257.5,-456 257.5,-456 257.5,-462 251.5,-468 245.5,-468"/>
<text text-anchor="middle" x="156" y="-447.5" font-family="sans" font-size="10.00">generate_region_files_without_header</text>
</g>
<!-- 2&#45;&gt;0 -->
<g id="edge10" class="edge">
<title>2&#45;&gt;0</title>
<path fill="none" stroke="grey" stroke-width="2" d="M146.85,-431.63C116.72,-371.83 28.11,-172.6 128,-72 178.34,-21.3 401.99,-17.71 491.65,-18.38"/>
<polygon fill="grey" stroke="grey" stroke-width="2" points="491.86,-21.88 501.89,-18.47 491.93,-14.88 491.86,-21.88"/>
</g>
<!-- 2&#45;&gt;1 -->
<g id="edge16" class="edge">
<title>2&#45;&gt;1</title>
<path fill="none" stroke="grey" stroke-width="2" d="M156,-431.85C156,-394.83 156,-307.18 156,-262.39"/>
<polygon fill="grey" stroke="grey" stroke-width="2" points="159.5,-262.23 156,-252.23 152.5,-262.23 159.5,-262.23"/>
</g>
<!-- 4 -->
<g id="node5" class="node">
<title>4</title>
<path fill="none" stroke="#d88d56" stroke-width="2" d="M58,-324C58,-324 12,-324 12,-324 6,-324 0,-318 0,-312 0,-312 0,-300 0,-300 0,-294 6,-288 12,-288 12,-288 58,-288 58,-288 64,-288 70,-294 70,-300 70,-300 70,-312 70,-312 70,-318 64,-324 58,-324"/>
<text text-anchor="middle" x="35" y="-303.5" font-family="sans" font-size="10.00">mask_pars</text>
</g>
<!-- 2&#45;&gt;4 -->
<g id="edge19" class="edge">
<title>2&#45;&gt;4</title>
<path fill="none" stroke="grey" stroke-width="2" d="M127.03,-431.88C112.87,-422.53 96.28,-410.01 84,-396 67.56,-377.25 54.34,-352.07 45.79,-333.28"/>
<polygon fill="grey" stroke="grey" stroke-width="2" points="48.98,-331.85 41.75,-324.1 42.58,-334.66 48.98,-331.85"/>
</g>
<!-- 9 -->
<g id="node10" class="node">
<title>9</title>
<path fill="none" stroke="#59d856" stroke-width="2" d="M377,-396C377,-396 273,-396 273,-396 267,-396 261,-390 261,-384 261,-384 261,-372 261,-372 261,-366 267,-360 273,-360 273,-360 377,-360 377,-360 383,-360 389,-366 389,-372 389,-372 389,-384 389,-384 389,-390 383,-396 377,-396"/>
<text text-anchor="middle" x="325" y="-375.5" font-family="sans" font-size="10.00">create_y_chromosome</text>
</g>
<!-- 2&#45;&gt;9 -->
<g id="edge25" class="edge">
<title>2&#45;&gt;9</title>
<path fill="none" stroke="grey" stroke-width="2" d="M197.34,-431.88C220.55,-422.26 249.69,-410.19 274.27,-400.01"/>
<polygon fill="grey" stroke="grey" stroke-width="2" points="275.89,-403.13 283.79,-396.07 273.21,-396.66 275.89,-403.13"/>
</g>
<!-- 3 -->
<g id="node4" class="node">
<title>3</title>
<path fill="none" stroke="#56d8a9" stroke-width="2" d="M647.5,-540C647.5,-540 484.5,-540 484.5,-540 478.5,-540 472.5,-534 472.5,-528 472.5,-528 472.5,-516 472.5,-516 472.5,-510 478.5,-504 484.5,-504 484.5,-504 647.5,-504 647.5,-504 653.5,-504 659.5,-510 659.5,-516 659.5,-516 659.5,-528 659.5,-528 659.5,-534 653.5,-540 647.5,-540"/>
<text text-anchor="middle" x="566" y="-519.5" font-family="sans" font-size="10.00">generate_region_files_with_header</text>
</g>
<!-- 3&#45;&gt;0 -->
<g id="edge9" class="edge">
<title>3&#45;&gt;0</title>
<path fill="none" stroke="grey" stroke-width="2" d="M659.52,-507.82C780.8,-488.06 977,-445.76 977,-379 977,-379 977,-379 977,-161 977,-114.03 959.6,-97.27 920,-72 861.72,-34.81 652.3,-23.32 566.28,-20.12"/>
<polygon fill="grey" stroke="grey" stroke-width="2" points="566.3,-16.62 556.18,-19.76 566.05,-23.61 566.3,-16.62"/>
</g>
<!-- 3&#45;&gt;2 -->
<g id="edge18" class="edge">
<title>3&#45;&gt;2</title>
<path fill="none" stroke="grey" stroke-width="2" d="M472.45,-505.03C410.98,-494.53 330.3,-480.76 265.8,-469.75"/>
<polygon fill="grey" stroke="grey" stroke-width="2" points="266.03,-466.24 255.59,-468 264.86,-473.14 266.03,-466.24"/>
</g>
<!-- 4&#45;&gt;0 -->
<g id="edge12" class="edge">
<title>4&#45;&gt;0</title>
<path fill="none" stroke="grey" stroke-width="2" d="M32.03,-287.81C25.61,-244.41 15.61,-129.72 77,-72 107.06,-43.74 388.93,-26.31 491.72,-20.85"/>
<polygon fill="grey" stroke="grey" stroke-width="2" points="492.14,-24.34 501.94,-20.32 491.77,-17.35 492.14,-24.34"/>
</g>
<!-- 4&#45;&gt;1 -->
<g id="edge17" class="edge">
<title>4&#45;&gt;1</title>
<path fill="none" stroke="grey" stroke-width="2" d="M64.6,-287.88C80.57,-278.64 100.46,-267.13 117.61,-257.21"/>
<polygon fill="grey" stroke="grey" stroke-width="2" points="119.38,-260.23 126.29,-252.19 115.88,-254.17 119.38,-260.23"/>
</g>
<!-- 5 -->
<g id="node6" class="node">
<title>5</title>
<path fill="none" stroke="#d85656" stroke-width="2" d="M861,-108C861,-108 803,-108 803,-108 797,-108 791,-102 791,-96 791,-96 791,-84 791,-84 791,-78 797,-72 803,-72 803,-72 861,-72 861,-72 867,-72 873,-78 873,-84 873,-84 873,-96 873,-96 873,-102 867,-108 861,-108"/>
<text text-anchor="middle" x="832" y="-87.5" font-family="sans" font-size="10.00">ymasked_cat</text>
</g>
<!-- 5&#45;&gt;0 -->
<g id="edge2" class="edge">
<title>5&#45;&gt;0</title>
<path fill="none" stroke="grey" stroke-width="2" d="M790.97,-75.88C786.28,-74.51 781.55,-73.19 777,-72 702.98,-52.69 615.19,-35.18 566.43,-25.92"/>
<polygon fill="grey" stroke="grey" stroke-width="2" points="566.82,-22.43 556.34,-24.02 565.52,-29.31 566.82,-22.43"/>
</g>
<!-- 6 -->
<g id="node7" class="node">
<title>6</title>
<path fill="none" stroke="#5692d8" stroke-width="2" d="M883,-180C883,-180 813,-180 813,-180 807,-180 801,-174 801,-168 801,-168 801,-156 801,-156 801,-150 807,-144 813,-144 813,-144 883,-144 883,-144 889,-144 895,-150 895,-156 895,-156 895,-168 895,-168 895,-174 889,-180 883,-180"/>
<text text-anchor="middle" x="848" y="-159.5" font-family="sans" font-size="10.00">ymasked_mask</text>
</g>
<!-- 6&#45;&gt;0 -->
<g id="edge15" class="edge">
<title>6&#45;&gt;0</title>
<path fill="none" stroke="grey" stroke-width="2" d="M864.01,-143.8C880.06,-124.43 900.02,-92.93 882,-72 841.52,-24.99 648.42,-19.09 566.2,-18.76"/>
<polygon fill="grey" stroke="grey" stroke-width="2" points="566.06,-15.26 556.05,-18.74 566.05,-22.26 566.06,-15.26"/>
</g>
<!-- 6&#45;&gt;5 -->
<g id="edge20" class="edge">
<title>6&#45;&gt;5</title>
<path fill="none" stroke="grey" stroke-width="2" d="M844.04,-143.7C842.28,-135.98 840.16,-126.71 838.2,-118.11"/>
<polygon fill="grey" stroke="grey" stroke-width="2" points="841.55,-117.07 835.91,-108.1 834.73,-118.63 841.55,-117.07"/>
</g>
<!-- 7 -->
<g id="node8" class="node">
<title>7</title>
<path fill="none" stroke="#d8cb56" stroke-width="2" d="M545,-252C545,-252 515,-252 515,-252 509,-252 503,-246 503,-240 503,-240 503,-228 503,-228 503,-222 509,-216 515,-216 515,-216 545,-216 545,-216 551,-216 557,-222 557,-228 557,-228 557,-240 557,-240 557,-246 551,-252 545,-252"/>
<text text-anchor="middle" x="530" y="-231.5" font-family="sans" font-size="10.00">fold</text>
</g>
<!-- 7&#45;&gt;0 -->
<g id="edge7" class="edge">
<title>7&#45;&gt;0</title>
<path fill="none" stroke="grey" stroke-width="2" d="M537.48,-215.7C541.47,-205.52 545.97,-192.27 548,-180 555.71,-133.35 545.11,-78.58 536.92,-46.45"/>
<polygon fill="grey" stroke="grey" stroke-width="2" points="540.22,-45.23 534.27,-36.47 533.45,-47.03 540.22,-45.23"/>
</g>
<!-- 7&#45;&gt;6 -->
<g id="edge22" class="edge">
<title>7&#45;&gt;6</title>
<path fill="none" stroke="grey" stroke-width="2" d="M557.23,-228.3C604.9,-219.89 706.45,-201.15 791,-180 791.1,-179.97 791.2,-179.95 791.3,-179.92"/>
<polygon fill="grey" stroke="grey" stroke-width="2" points="792.03,-183.35 800.81,-177.43 790.25,-176.58 792.03,-183.35"/>
</g>
<!-- 12 -->
<g id="node13" class="node">
<title>12</title>
<path fill="none" stroke="#d87556" stroke-width="2" d="M489.5,-108C489.5,-108 364.5,-108 364.5,-108 358.5,-108 352.5,-102 352.5,-96 352.5,-96 352.5,-84 352.5,-84 352.5,-78 358.5,-72 364.5,-72 364.5,-72 489.5,-72 489.5,-72 495.5,-72 501.5,-78 501.5,-84 501.5,-84 501.5,-96 501.5,-96 501.5,-102 495.5,-108 489.5,-108"/>
<text text-anchor="middle" x="427" y="-87.5" font-family="sans" font-size="10.00">create_reference_genomes</text>
</g>
<!-- 7&#45;&gt;12 -->
<g id="edge27" class="edge">
<title>7&#45;&gt;12</title>
<path fill="none" stroke="grey" stroke-width="2" d="M502.74,-224.8C481.47,-216.9 453.08,-202.74 438,-180 426,-161.91 423.81,-137.13 424.3,-118.31"/>
<polygon fill="grey" stroke="grey" stroke-width="2" points="427.8,-118.45 424.83,-108.28 420.81,-118.08 427.8,-118.45"/>
</g>
<!-- 15 -->
<g id="node16" class="node">
<title>15</title>
<path fill="none" stroke="#56c9d8" stroke-width="2" d="M527,-180C527,-180 459,-180 459,-180 453,-180 447,-174 447,-168 447,-168 447,-156 447,-156 447,-150 453,-144 459,-144 459,-144 527,-144 527,-144 533,-144 539,-150 539,-156 539,-156 539,-168 539,-168 539,-174 533,-180 527,-180"/>
<text text-anchor="middle" x="493" y="-159.5" font-family="sans" font-size="10.00">hardmask_ychr</text>
</g>
<!-- 7&#45;&gt;15 -->
<g id="edge30" class="edge">
<title>7&#45;&gt;15</title>
<path fill="none" stroke="grey" stroke-width="2" d="M520.85,-215.7C516.6,-207.64 511.44,-197.89 506.73,-188.98"/>
<polygon fill="grey" stroke="grey" stroke-width="2" points="509.81,-187.31 502.04,-180.1 503.62,-190.58 509.81,-187.31"/>
</g>
<!-- 8 -->
<g id="node9" class="node">
<title>8</title>
<path fill="none" stroke="#56a9d8" stroke-width="2" d="M570,-324C570,-324 490,-324 490,-324 484,-324 478,-318 478,-312 478,-312 478,-300 478,-300 478,-294 484,-288 490,-288 490,-288 570,-288 570,-288 576,-288 582,-294 582,-300 582,-300 582,-312 582,-312 582,-318 576,-324 570,-324"/>
<text text-anchor="middle" x="530" y="-303.5" font-family="sans" font-size="10.00">single_line_whole</text>
</g>
<!-- 8&#45;&gt;0 -->
<g id="edge14" class="edge">
<title>8&#45;&gt;0</title>
<path fill="none" stroke="grey" stroke-width="2" d="M582.24,-305.24C666.31,-302.44 829.69,-283.19 904,-180 915.11,-164.58 916.03,-89.48 900,-72 855.72,-23.72 651.51,-18.6 566.4,-18.61"/>
<polygon fill="grey" stroke="grey" stroke-width="2" points="566.15,-15.12 556.16,-18.64 566.17,-22.12 566.15,-15.12"/>
</g>
<!-- 8&#45;&gt;7 -->
<g id="edge23" class="edge">
<title>8&#45;&gt;7</title>
<path fill="none" stroke="grey" stroke-width="2" d="M530,-287.7C530,-279.98 530,-270.71 530,-262.11"/>
<polygon fill="grey" stroke="grey" stroke-width="2" points="533.5,-262.1 530,-252.1 526.5,-262.1 533.5,-262.1"/>
</g>
<!-- 9&#45;&gt;0 -->
<g id="edge5" class="edge">
<title>9&#45;&gt;0</title>
<path fill="none" stroke="grey" stroke-width="2" d="M325,-359.95C325,-333.29 325,-280.11 325,-235 325,-235 325,-235 325,-161 325,-120.64 315.6,-101.63 343,-72 381.25,-30.64 449.26,-20.73 491.59,-18.81"/>
<polygon fill="grey" stroke="grey" stroke-width="2" points="491.88,-22.3 501.76,-18.48 491.65,-15.31 491.88,-22.3"/>
</g>
<!-- 9&#45;&gt;8 -->
<g id="edge24" class="edge">
<title>9&#45;&gt;8</title>
<path fill="none" stroke="grey" stroke-width="2" d="M374.89,-359.97C403.65,-350.14 440.01,-337.73 470.29,-327.39"/>
<polygon fill="grey" stroke="grey" stroke-width="2" points="471.56,-330.65 479.89,-324.11 469.3,-324.03 471.56,-330.65"/>
</g>
<!-- 10 -->
<g id="node11" class="node">
<title>10</title>
<path fill="none" stroke="#d8ac56" stroke-width="2" stroke-dasharray="5,2" d="M770.5,-180C770.5,-180 705.5,-180 705.5,-180 699.5,-180 693.5,-174 693.5,-168 693.5,-168 693.5,-156 693.5,-156 693.5,-150 699.5,-144 705.5,-144 705.5,-144 770.5,-144 770.5,-144 776.5,-144 782.5,-150 782.5,-156 782.5,-156 782.5,-168 782.5,-168 782.5,-174 776.5,-180 770.5,-180"/>
<text text-anchor="middle" x="738" y="-159.5" font-family="sans" font-size="10.00">ensembl_fasta</text>
</g>
<!-- 10&#45;&gt;0 -->
<g id="edge6" class="edge">
<title>10&#45;&gt;0</title>
<path fill="none" stroke="grey" stroke-width="2" d="M745.33,-143.94C752.45,-124.41 760.05,-92.48 744,-72 722.34,-44.35 622.07,-29.17 566.44,-22.75"/>
<polygon fill="grey" stroke="grey" stroke-width="2" points="566.6,-19.24 556.27,-21.61 565.82,-26.2 566.6,-19.24"/>
</g>
<!-- 10&#45;&gt;5 -->
<g id="edge21" class="edge">
<title>10&#45;&gt;5</title>
<path fill="none" stroke="grey" stroke-width="2" d="M761.24,-143.7C773.19,-134.8 787.92,-123.82 800.85,-114.2"/>
<polygon fill="grey" stroke="grey" stroke-width="2" points="803.1,-116.88 809.03,-108.1 798.92,-111.27 803.1,-116.88"/>
</g>
<!-- 11 -->
<g id="node12" class="node">
<title>11</title>
<path fill="none" stroke="#5673d8" stroke-width="2" stroke-dasharray="5,2" d="M723,-108C723,-108 607,-108 607,-108 601,-108 595,-102 595,-96 595,-96 595,-84 595,-84 595,-78 601,-72 607,-72 607,-72 723,-72 723,-72 729,-72 735,-78 735,-84 735,-84 735,-96 735,-96 735,-102 729,-108 723,-108"/>
<text text-anchor="middle" x="665" y="-87.5" font-family="sans" font-size="10.00">ypars_masked_reference</text>
</g>
<!-- 10&#45;&gt;11 -->
<g id="edge26" class="edge">
<title>10&#45;&gt;11</title>
<path fill="none" stroke="grey" stroke-width="2" d="M719.96,-143.7C710.94,-135.05 699.88,-124.45 690.06,-115.03"/>
<polygon fill="grey" stroke="grey" stroke-width="2" points="692.48,-112.5 682.84,-108.1 687.63,-117.55 692.48,-112.5"/>
</g>
<!-- 11&#45;&gt;0 -->
<g id="edge3" class="edge">
<title>11&#45;&gt;0</title>
<path fill="none" stroke="grey" stroke-width="2" d="M631.73,-71.88C611.68,-61.56 586.13,-48.4 565.52,-37.8"/>
<polygon fill="grey" stroke="grey" stroke-width="2" points="566.93,-34.59 556.44,-33.12 563.73,-40.81 566.93,-34.59"/>
</g>
<!-- 12&#45;&gt;0 -->
<g id="edge4" class="edge">
<title>12&#45;&gt;0</title>
<path fill="none" stroke="grey" stroke-width="2" d="M451.95,-71.88C465.04,-62.89 481.26,-51.76 495.44,-42.03"/>
<polygon fill="grey" stroke="grey" stroke-width="2" points="497.69,-44.73 503.95,-36.19 493.73,-38.96 497.69,-44.73"/>
</g>
<!-- 13 -->
<g id="node14" class="node">
<title>13</title>
<path fill="none" stroke="#56d873" stroke-width="2" d="M246.5,-108C246.5,-108 169.5,-108 169.5,-108 163.5,-108 157.5,-102 157.5,-96 157.5,-96 157.5,-84 157.5,-84 157.5,-78 163.5,-72 169.5,-72 169.5,-72 246.5,-72 246.5,-72 252.5,-72 258.5,-78 258.5,-84 258.5,-84 258.5,-96 258.5,-96 258.5,-102 252.5,-108 246.5,-108"/>
<text text-anchor="middle" x="208" y="-87.5" font-family="sans" font-size="10.00">fold_ychrmasked</text>
</g>
<!-- 13&#45;&gt;0 -->
<g id="edge8" class="edge">
<title>13&#45;&gt;0</title>
<path fill="none" stroke="grey" stroke-width="2" d="M258.68,-75.48C263.51,-74.27 268.34,-73.09 273,-72 350.56,-53.84 442.11,-35.67 492,-26.04"/>
<polygon fill="grey" stroke="grey" stroke-width="2" points="492.84,-29.44 501.99,-24.11 491.51,-22.57 492.84,-29.44"/>
</g>
<!-- 14&#45;&gt;0 -->
<g id="edge13" class="edge">
<title>14&#45;&gt;0</title>
<path fill="none" stroke="grey" stroke-width="2" d="M226.89,-143.82C253.94,-119.36 301.49,-76.9 311,-72 369.83,-41.71 446.58,-28.28 491.56,-22.67"/>
<polygon fill="grey" stroke="grey" stroke-width="2" points="492.22,-26.12 501.74,-21.47 491.4,-19.17 492.22,-26.12"/>
</g>
<!-- 14&#45;&gt;13 -->
<g id="edge28" class="edge">
<title>14&#45;&gt;13</title>
<path fill="none" stroke="grey" stroke-width="2" d="M208,-143.7C208,-135.98 208,-126.71 208,-118.11"/>
<polygon fill="grey" stroke="grey" stroke-width="2" points="211.5,-118.1 208,-108.1 204.5,-118.1 211.5,-118.1"/>
</g>
<!-- 15&#45;&gt;0 -->
<g id="edge11" class="edge">
<title>15&#45;&gt;0</title>
<path fill="none" stroke="grey" stroke-width="2" d="M498.95,-143.94C502.43,-133.62 506.77,-120.14 510,-108 515.46,-87.52 520.41,-64.06 523.89,-46.37"/>
<polygon fill="grey" stroke="grey" stroke-width="2" points="527.4,-46.66 525.86,-36.18 520.53,-45.34 527.4,-46.66"/>
</g>
</g>
</svg>
